<svg width="38" height="20" viewBox="0 0 38 20" fill="none" xmlns="http://www.w3.org/2000/svg">
<rect width="38" height="20" rx="4" fill="#1AA538"/>
<path d="M7 15.9424L11.8292 4.25116H13.4963V6.26047H12.9108L9.01159 15.9424H7ZM9.23204 12.9122L9.86583 11.2837H15.9902L16.6171 12.9122H9.23204ZM16.8651 15.9424L12.9728 6.26047V4.25116H14.0475L18.8835 15.9424H16.8651Z" fill="white"/>
<path d="M25.7519 16.1935C24.5302 16.1935 23.4762 15.9451 22.5898 15.4482C21.708 14.9458 21.026 14.241 20.5438 13.3335C20.0662 12.4207 19.8273 11.3431 19.8273 10.1008V10.0846C19.8273 8.84231 20.0662 7.76744 20.5438 6.86002C21.026 5.94719 21.708 5.24231 22.5898 4.74539C23.4762 4.24846 24.5302 4 25.7519 4C26.7715 4 27.6808 4.18635 28.4799 4.55904C29.2837 4.92633 29.9358 5.44756 30.4364 6.12273C30.9416 6.7925 31.2562 7.5838 31.3802 8.49662L31.3871 8.56954H29.4926L29.4788 8.52093C29.3365 7.95379 29.0976 7.47037 28.7624 7.07067C28.4271 6.67097 28.0069 6.36849 27.5017 6.16324C26.9965 5.95259 26.4155 5.84726 25.7588 5.84726C24.9367 5.84726 24.2271 6.02281 23.6301 6.37389C23.033 6.71958 22.5738 7.2111 22.2523 7.84846C21.9308 8.48042 21.77 9.22581 21.77 10.0846V10.1008C21.77 10.9596 21.9308 11.7077 22.2523 12.3451C22.5738 12.977 23.033 13.4686 23.6301 13.8197C24.2317 14.1707 24.9436 14.3463 25.7657 14.3463C26.4132 14.3463 26.9896 14.2437 27.4948 14.0384C28 13.8278 28.4202 13.5253 28.7555 13.131C29.0908 12.7367 29.3319 12.2614 29.4788 11.705L29.4926 11.6483H31.3871L31.3802 11.7293C31.2516 12.6368 30.9347 13.4254 30.4295 14.0951C29.9289 14.7649 29.2791 15.2834 28.4799 15.6507C27.6854 16.0126 26.7761 16.1935 25.7519 16.1935Z" fill="white"/>
</svg>
