<svg width="38" height="20" viewBox="0 0 38 20" fill="none" xmlns="http://www.w3.org/2000/svg">
<rect width="38" height="20" rx="4" fill="#FF9909"/>
<path d="M13.4079 16.1935C12.0865 16.1935 10.9465 15.9451 9.98785 15.4482C9.03412 14.9458 8.29647 14.241 7.7749 13.3335C7.2583 12.4207 7 11.3431 7 10.1008V10.0846C7 8.84231 7.2583 7.76744 7.7749 6.86002C8.29647 5.94719 9.03412 5.24231 9.98785 4.74539C10.9465 4.24846 12.0865 4 13.4079 4C14.5106 4 15.4941 4.18635 16.3584 4.55904C17.2277 4.92633 17.9331 5.44756 18.4745 6.12273C19.0209 6.7925 19.3612 7.5838 19.4953 8.49662L19.5028 8.56954H17.4537L17.4388 8.52093C17.2849 7.95379 17.0266 7.47037 16.6639 7.07067C16.3013 6.67097 15.8468 6.36849 15.3004 6.16324C14.754 5.95259 14.1256 5.84726 13.4153 5.84726C12.5262 5.84726 11.7587 6.02281 11.1129 6.37389C10.4672 6.71958 9.97046 7.2111 9.62275 7.84846C9.27504 8.48042 9.10118 9.22581 9.10118 10.0846V10.1008C9.10118 10.9596 9.27504 11.7077 9.62275 12.3451C9.97046 12.977 10.4672 13.4686 11.1129 13.8197C11.7637 14.1707 12.5336 14.3463 13.4228 14.3463C14.1231 14.3463 14.7465 14.2437 15.293 14.0384C15.8394 13.8278 16.2939 13.5253 16.6565 13.131C17.0191 12.7367 17.2799 12.2614 17.4388 11.705L17.4537 11.6483H19.5028L19.4953 11.7293C19.3562 12.6368 19.0135 13.4254 18.4671 14.0951C17.9256 14.7649 17.2228 15.2834 16.3584 15.6507C15.4991 16.0126 14.5156 16.1935 13.4079 16.1935Z" fill="white"/>
<path d="M21.8349 15.9424V4.25116H31.3871V6.0093H23.8839V9.16099H30.8804V10.8219H23.8839V14.1842H31.3871V15.9424H21.8349Z" fill="white"/>
</svg>
