<svg width="39" height="34" viewBox="0 0 39 34" fill="none" xmlns="http://www.w3.org/2000/svg">
<path d="M8.48478 34C7.14641 34 6.16157 33.6592 5.53026 32.9777C4.9242 32.3215 4.62117 31.4885 4.62117 30.4788V28.3964C4.62117 27.7402 4.68431 27.1596 4.81057 26.6548C4.93683 26.15 5.10097 25.7082 5.30299 25.3296C5.53026 24.9258 5.77016 24.5724 6.02268 24.2695C6.2752 23.9666 6.5151 23.6763 6.74237 23.3987C7.17166 22.8938 7.46206 22.4647 7.61357 22.1114C7.79034 21.7327 7.87872 21.3415 7.87872 20.9376C7.87872 19.297 6.30045 18.4766 3.14391 18.4766H0V15.5234H3.14391C6.30045 15.5234 7.87872 14.703 7.87872 13.0624C7.87872 12.6585 7.79034 12.2799 7.61357 11.9265C7.46206 11.5479 7.17166 11.1062 6.74237 10.6013C6.5151 10.3237 6.2752 10.0334 6.02268 9.73051C5.77016 9.40238 5.54288 9.049 5.34087 8.67038C5.13885 8.29176 4.96208 7.85004 4.81057 7.34521C4.68431 6.84039 4.62117 6.25984 4.62117 5.60356V3.52116C4.62117 2.51151 4.9242 1.67855 5.53026 1.02227C6.16157 0.340757 7.14641 0 8.48478 0H15.1514V2.95323H8.03024V5.37639C8.03024 5.88122 8.06812 6.32294 8.14387 6.70156C8.21963 7.05494 8.32064 7.38307 8.4469 7.68597C8.59841 7.98886 8.76255 8.26652 8.93932 8.51893C9.14134 8.77134 9.34336 9.02376 9.54538 9.27617C9.97467 9.80624 10.3787 10.3742 10.7575 10.98C11.1363 11.5857 11.3257 12.2925 11.3257 13.1002C11.3257 14.1604 10.9469 15.0186 10.1893 15.6748C9.45699 16.3059 8.40902 16.7097 7.0454 16.8864V17.1136C8.40902 17.2903 9.45699 17.7068 10.1893 18.363C10.9469 18.9941 11.3257 19.8396 11.3257 20.8998C11.3257 21.7075 11.1363 22.4143 10.7575 23.02C10.3787 23.6258 9.97467 24.1938 9.54538 24.7238C9.34336 24.9762 9.14134 25.2287 8.93932 25.4811C8.76255 25.7335 8.59841 26.0111 8.4469 26.314C8.32064 26.6169 8.21963 26.9577 8.14387 27.3363C8.06812 27.6897 8.03024 28.1188 8.03024 28.6236V31.0468H15.1514V34H8.48478ZM30.5152 0C31.8536 0 32.8258 0.340757 33.4319 1.02227C34.0632 1.67855 34.3788 2.51151 34.3788 3.52116V5.60356C34.3788 6.25984 34.3031 6.84039 34.1516 7.34521C34.0253 7.85004 33.8611 8.29176 33.6591 8.67038C33.4571 9.049 33.2298 9.40238 32.9773 9.73051C32.7248 10.0334 32.4849 10.3237 32.2576 10.6013C31.8283 11.1062 31.5253 11.5479 31.3485 11.9265C31.197 12.2799 31.1213 12.6585 31.1213 13.0624C31.1213 14.703 32.6995 15.5234 35.8561 15.5234H39V18.4766H35.8561C32.6995 18.4766 31.1213 19.297 31.1213 20.9376C31.1213 21.3415 31.197 21.7327 31.3485 22.1114C31.5253 22.4647 31.8283 22.8938 32.2576 23.3987C32.4849 23.7016 32.7248 24.0045 32.9773 24.3073C33.2298 24.6102 33.4571 24.9636 33.6591 25.3675C33.8864 25.7461 34.0632 26.1878 34.1894 26.6927C34.3157 27.1722 34.3788 27.7402 34.3788 28.3964V30.4788C34.3788 31.4885 34.0632 32.3215 33.4319 32.9777C32.8258 33.6592 31.8536 34 30.5152 34H23.8486V31.0468H30.9698V28.6236C30.9698 27.614 30.8182 26.8441 30.5152 26.314C30.2122 25.7587 29.8587 25.2287 29.4546 24.7238C29.0253 24.1938 28.6213 23.6258 28.2425 23.02C27.8637 22.4143 27.6743 21.7075 27.6743 20.8998C27.6743 19.8396 28.0405 18.9941 28.7728 18.363C29.5304 17.7068 30.591 17.2903 31.9546 17.1136V16.8864C30.591 16.7097 29.5304 16.3059 28.7728 15.6748C28.0405 15.0186 27.6743 14.1604 27.6743 13.1002C27.6743 12.2925 27.8637 11.5857 28.2425 10.98C28.6213 10.3742 29.0253 9.80624 29.4546 9.27617C29.8587 8.77134 30.2122 8.2539 30.5152 7.72383C30.8182 7.16852 30.9698 6.38604 30.9698 5.37639V2.95323H23.8486V0H30.5152Z" fill="#EE6300"/>
</svg>
