<svg width="207" height="54" viewBox="0 0 207 54" fill="none" xmlns="http://www.w3.org/2000/svg">
<path d="M47.16 39V14.304H52.272L55.692 33.744H55.836L59.4 14.304H64.44V39H61.056V18.696H60.876L57.24 39H53.892L50.364 18.696H50.184V39H47.16ZM72.3819 39.36C70.4859 39.36 69.0219 38.916 67.9899 38.028C66.9819 37.14 66.4779 35.832 66.4779 34.104C66.4779 32.664 66.8619 31.512 67.6299 30.648C68.4219 29.76 69.6819 29.112 71.4099 28.704C73.1619 28.296 75.4659 28.092 78.3219 28.092V26.076C78.3219 24.924 78.0219 24.084 77.4219 23.556C76.8459 23.028 75.8619 22.764 74.4699 22.764C73.1979 22.764 72.2139 23.028 71.5179 23.556C70.8219 24.084 70.4739 24.828 70.4739 25.788V26.22H67.1619C67.1139 25.836 67.0779 25.584 67.0539 25.464C67.0539 25.344 67.0539 25.296 67.0539 25.32C67.0539 25.344 67.0539 25.38 67.0539 25.428C67.0779 25.476 67.0899 25.476 67.0899 25.428C67.0899 23.844 67.7619 22.584 69.1059 21.648C70.4739 20.712 72.2979 20.244 74.5779 20.244C77.0019 20.244 78.8259 20.712 80.0499 21.648C81.2979 22.584 81.9219 24.012 81.9219 25.932V35.688C81.9219 36.072 82.0179 36.348 82.2099 36.516C82.4019 36.684 82.6539 36.768 82.9659 36.768C83.5179 36.768 83.9979 36.624 84.4059 36.336V38.676C84.0939 38.892 83.7099 39.06 83.2539 39.18C82.7979 39.3 82.3179 39.36 81.8139 39.36C81.0939 39.36 80.5059 39.264 80.0499 39.072C79.5939 38.904 79.2579 38.604 79.0419 38.172C78.8259 37.74 78.6819 37.14 78.6099 36.372C78.2019 37.116 77.6739 37.716 77.0259 38.172C76.3779 38.604 75.6579 38.904 74.8659 39.072C74.0739 39.264 73.2459 39.36 72.3819 39.36ZM73.4979 36.804C74.6019 36.804 75.5019 36.564 76.1979 36.084C76.9179 35.604 77.4459 34.956 77.7819 34.14C78.1419 33.324 78.3219 32.412 78.3219 31.404V30.288C76.2579 30.288 74.6139 30.408 73.3899 30.648C72.1899 30.864 71.3259 31.236 70.7979 31.764C70.2939 32.268 70.0419 32.988 70.0419 33.924C70.0419 34.884 70.3179 35.604 70.8699 36.084C71.4459 36.564 72.3219 36.804 73.4979 36.804ZM93.1399 39V23.412H86.5519V20.604H96.7399V39H93.1399ZM86.5519 39V36.228H102.968V39H86.5519ZM92.9959 16.824V13.368H96.3799V16.824H92.9959ZM112.782 39.36C111.462 39.36 110.238 39.168 109.11 38.784C108.006 38.4 107.034 37.788 106.194 36.948C105.354 36.084 104.694 34.944 104.214 33.528C103.758 32.112 103.53 30.372 103.53 28.308V24.996C103.53 22.932 103.77 21.192 104.25 19.776C104.73 18.36 105.39 17.232 106.23 16.392C107.07 15.528 108.042 14.904 109.146 14.52C110.274 14.136 111.474 13.944 112.746 13.944H113.25C115.122 13.944 116.718 14.304 118.038 15.024C119.382 15.744 120.402 16.836 121.098 18.3C121.794 19.74 122.142 21.552 122.142 23.736H118.506C118.506 22.152 118.326 20.868 117.966 19.884C117.63 18.876 117.054 18.144 116.238 17.688C115.422 17.208 114.33 16.968 112.962 16.968C112.17 16.968 111.438 17.088 110.766 17.328C110.118 17.544 109.542 17.928 109.038 18.48C108.534 19.008 108.138 19.74 107.85 20.676C107.562 21.612 107.418 22.788 107.418 24.204V29.064C107.418 30.48 107.562 31.668 107.85 32.628C108.138 33.564 108.534 34.308 109.038 34.86C109.542 35.388 110.118 35.772 110.766 36.012C111.438 36.228 112.17 36.336 112.962 36.336C115.026 36.336 116.478 35.808 117.318 34.752C118.182 33.672 118.614 31.956 118.614 29.604H122.142C122.142 31.716 121.794 33.492 121.098 34.932C120.402 36.372 119.394 37.476 118.074 38.244C116.754 38.988 115.158 39.36 113.286 39.36H112.782ZM132.064 39.36C130.288 39.36 128.764 38.964 127.492 38.172C126.22 37.38 125.248 36.288 124.576 34.896C123.904 33.48 123.568 31.884 123.568 30.108V29.496C123.568 27.672 123.904 26.064 124.576 24.672C125.248 23.28 126.22 22.2 127.492 21.432C128.764 20.64 130.276 20.244 132.028 20.244C133.828 20.244 135.364 20.64 136.636 21.432C137.908 22.224 138.88 23.316 139.552 24.708C140.224 26.1 140.56 27.696 140.56 29.496V30.108C140.56 31.932 140.224 33.54 139.552 34.932C138.88 36.324 137.908 37.416 136.636 38.208C135.364 38.976 133.84 39.36 132.064 39.36ZM132.064 36.804C133.456 36.804 134.596 36.3 135.484 35.292C136.372 34.26 136.816 32.832 136.816 31.008V28.596C136.816 26.772 136.372 25.356 135.484 24.348C134.596 23.316 133.456 22.8 132.064 22.8C130.696 22.8 129.556 23.316 128.644 24.348C127.756 25.356 127.312 26.772 127.312 28.596V31.008C127.312 32.832 127.756 34.26 128.644 35.292C129.556 36.3 130.696 36.804 132.064 36.804ZM149.654 39.36C148.334 39.36 147.122 39.048 146.018 38.424C144.914 37.776 144.026 36.78 143.354 35.436C142.706 34.068 142.382 32.292 142.382 30.108V29.712C142.382 27.672 142.706 25.944 143.354 24.528C144.002 23.112 144.878 22.044 145.982 21.324C147.11 20.604 148.358 20.244 149.726 20.244C150.95 20.244 152.018 20.472 152.93 20.928C153.842 21.36 154.55 21.96 155.054 22.728V13.08H158.654V39H155.738L155.342 36.372C154.814 37.332 154.07 38.076 153.11 38.604C152.15 39.108 150.998 39.36 149.654 39.36ZM150.518 36.768C151.838 36.768 152.918 36.288 153.758 35.328C154.622 34.344 155.054 32.832 155.054 30.792V28.776C155.054 26.76 154.622 25.26 153.758 24.276C152.918 23.292 151.838 22.8 150.518 22.8C149.198 22.8 148.106 23.304 147.242 24.312C146.402 25.296 145.982 26.784 145.982 28.776V30.756C145.982 32.796 146.402 34.308 147.242 35.292C148.106 36.276 149.198 36.768 150.518 36.768ZM170.196 39.36C168.276 39.36 166.68 38.976 165.408 38.208C164.16 37.44 163.224 36.36 162.6 34.968C162 33.576 161.7 31.98 161.7 30.18V29.424C161.7 27.552 162.048 25.932 162.744 24.564C163.44 23.196 164.436 22.14 165.732 21.396C167.028 20.628 168.564 20.244 170.34 20.244C171.996 20.244 173.412 20.58 174.588 21.252C175.788 21.924 176.712 22.836 177.36 23.988C178.032 25.14 178.368 26.46 178.368 27.948V30.396H165.444V31.008C165.444 32.904 165.9 34.344 166.812 35.328C167.724 36.312 168.876 36.804 170.268 36.804C171.804 36.804 172.968 36.432 173.76 35.688C174.576 34.944 174.984 33.792 174.984 32.232H178.368C178.368 33.696 178.02 34.968 177.324 36.048C176.652 37.104 175.704 37.92 174.48 38.496C173.28 39.072 171.852 39.36 170.196 39.36ZM165.48 28.056H174.84V27.516C174.84 26.604 174.648 25.8 174.264 25.104C173.904 24.384 173.376 23.82 172.68 23.412C171.984 23.004 171.18 22.8 170.268 22.8C169.236 22.8 168.36 23.052 167.64 23.556C166.944 24.06 166.404 24.708 166.02 25.5C165.66 26.268 165.48 27.06 165.48 27.876V28.056ZM184.762 39V23.412H180.118V20.604H187.678L187.858 23.304C188.29 22.344 188.95 21.6 189.838 21.072C190.75 20.52 191.794 20.244 192.97 20.244C194.77 20.244 196.15 20.784 197.11 21.864C198.094 22.92 198.586 24.276 198.586 25.932C198.586 26.196 198.574 26.448 198.55 26.688C198.55 26.904 198.526 27.168 198.478 27.48H195.418V26.724C195.418 26.076 195.286 25.476 195.022 24.924C194.782 24.372 194.398 23.928 193.87 23.592C193.366 23.232 192.706 23.052 191.89 23.052C191.098 23.052 190.426 23.28 189.874 23.736C189.346 24.192 188.95 24.768 188.686 25.464C188.422 26.16 188.29 26.892 188.29 27.66V39H184.762ZM179.938 39V36.228H196.534V39H179.938Z" fill="#363636"/>
<path d="M15.664 42.968C14.392 42.968 13.456 42.644 12.856 41.996C12.28 41.372 11.992 40.58 11.992 39.62V37.64C11.992 37.016 12.052 36.464 12.172 35.984C12.292 35.504 12.448 35.084 12.64 34.724C12.856 34.34 13.084 34.004 13.324 33.716C13.564 33.428 13.792 33.152 14.008 32.888C14.416 32.408 14.692 32 14.836 31.664C15.004 31.304 15.088 30.932 15.088 30.548C15.088 28.988 13.588 28.208 10.588 28.208H7.6V25.4H10.588C13.588 25.4 15.088 24.62 15.088 23.06C15.088 22.676 15.004 22.316 14.836 21.98C14.692 21.62 14.416 21.2 14.008 20.72C13.792 20.456 13.564 20.18 13.324 19.892C13.084 19.58 12.868 19.244 12.676 18.884C12.484 18.524 12.316 18.104 12.172 17.624C12.052 17.144 11.992 16.592 11.992 15.968V13.988C11.992 13.028 12.28 12.236 12.856 11.612C13.456 10.964 14.392 10.64 15.664 10.64H22V13.448H15.232V15.752C15.232 16.232 15.268 16.652 15.34 17.012C15.412 17.348 15.508 17.66 15.628 17.948C15.772 18.236 15.928 18.5 16.096 18.74C16.288 18.98 16.48 19.22 16.672 19.46C17.08 19.964 17.464 20.504 17.824 21.08C18.184 21.656 18.364 22.328 18.364 23.096C18.364 24.104 18.004 24.92 17.284 25.544C16.588 26.144 15.592 26.528 14.296 26.696V26.912C15.592 27.08 16.588 27.476 17.284 28.1C18.004 28.7 18.364 29.504 18.364 30.512C18.364 31.28 18.184 31.952 17.824 32.528C17.464 33.104 17.08 33.644 16.672 34.148C16.48 34.388 16.288 34.628 16.096 34.868C15.928 35.108 15.772 35.372 15.628 35.66C15.508 35.948 15.412 36.272 15.34 36.632C15.268 36.968 15.232 37.376 15.232 37.856V40.16H22V42.968H15.664ZM36.6019 10.64C37.8739 10.64 38.7979 10.964 39.3739 11.612C39.9739 12.236 40.2739 13.028 40.2739 13.988V15.968C40.2739 16.592 40.2019 17.144 40.0579 17.624C39.9379 18.104 39.7819 18.524 39.5899 18.884C39.3979 19.244 39.1819 19.58 38.9419 19.892C38.7019 20.18 38.4739 20.456 38.2579 20.72C37.8499 21.2 37.5619 21.62 37.3939 21.98C37.2499 22.316 37.1779 22.676 37.1779 23.06C37.1779 24.62 38.6779 25.4 41.6779 25.4H44.6659V28.208H41.6779C38.6779 28.208 37.1779 28.988 37.1779 30.548C37.1779 30.932 37.2499 31.304 37.3939 31.664C37.5619 32 37.8499 32.408 38.2579 32.888C38.4739 33.176 38.7019 33.464 38.9419 33.752C39.1819 34.04 39.3979 34.376 39.5899 34.76C39.8059 35.12 39.9739 35.54 40.0939 36.02C40.2139 36.476 40.2739 37.016 40.2739 37.64V39.62C40.2739 40.58 39.9739 41.372 39.3739 41.996C38.7979 42.644 37.8739 42.968 36.6019 42.968H30.2659V40.16H37.0339V37.856C37.0339 36.896 36.8899 36.164 36.6019 35.66C36.3139 35.132 35.9779 34.628 35.5939 34.148C35.1859 33.644 34.8019 33.104 34.4419 32.528C34.0819 31.952 33.9019 31.28 33.9019 30.512C33.9019 29.504 34.2499 28.7 34.9459 28.1C35.6659 27.476 36.6739 27.08 37.9699 26.912V26.696C36.6739 26.528 35.6659 26.144 34.9459 25.544C34.2499 24.92 33.9019 24.104 33.9019 23.096C33.9019 22.328 34.0819 21.656 34.4419 21.08C34.8019 20.504 35.1859 19.964 35.5939 19.46C35.9779 18.98 36.3139 18.488 36.6019 17.984C36.8899 17.456 37.0339 16.712 37.0339 15.752V13.448H30.2659V10.64H36.6019Z" fill="#EE6300"/>
</svg>
